<?xml version="1.0" encoding="utf-8"?>
<!-- Generator: Adobe Illustrator 18.0.0, SVG Export Plug-In . SVG Version: 6.00 Build 0)  -->
<!DOCTYPE svg PUBLIC "-//W3C//DTD SVG 1.1//EN" "http://www.w3.org/Graphics/SVG/1.1/DTD/svg11.dtd">
<svg version="1.1" id="Icon_Set" xmlns="http://www.w3.org/2000/svg" xmlns:xlink="http://www.w3.org/1999/xlink" x="0px" y="0px"
	 viewBox="0 0 512 512" style="enable-background:new 0 0 512 512;" xml:space="preserve">
<style type="text/css">
	.st0{fill:#F0C48A;}
	.st1{fill:#FD919E;}
	.st2{fill:#E8677D;}
	.st3{fill:#4C4372;}
	.st4{fill:#D3E6F8;}
	.st5{fill:#A4CFF2;}
	.st6{fill:#FFFFFF;}
	.st7{fill:#7BABF1;}
</style>
<g>
	<circle class="st0" cx="256" cy="256.052" r="207"/>
	<g>
		<g>
			<path class="st3" d="M159,192.174c-3.231,0-6-2.62-6-5.851V5.903c0-3.231,2.769-5.851,6-5.851c3.231,0,6,2.62,6,5.851v180.419
				C165,189.554,162.231,192.174,159,192.174z"/>
		</g>
		<g>
			<path class="st3" d="M346,192.174c-3.231,0-6-2.62-6-5.851V5.903c0-3.231,2.769-5.851,6-5.851c3.231,0,6,2.62,6,5.851v180.419
				C352,189.554,349.231,192.174,346,192.174z"/>
		</g>
		<g>
			<circle class="st4" cx="253.506" cy="186.103" r="95.224"/>
		</g>
		<g>
			<path class="st1" d="M269,322.129v-42.303c-5,0.986-11.058,1.502-16.836,1.502c-5.894,0-10.164-0.54-17.164-1.564v44.701
				C235,340.21,249.012,353,264.758,353h4.604c33.904,0,62.077,27.285,61.839,61.188c-0.238,33.95-28.318,61.277-62.544,60.298
				c-32.464-0.928-58.985-29.727-58.985-62.204l0,0c0-14.853-12.041-27.283-26.894-27.283h-32.072l28.121,28.354
				c0,51.329,42.215,92.992,93.82,91.778c48.598-1.144,87.514-40.682,88.657-89.28C362.518,364.247,321,322.129,269,322.129z"/>
		</g>
		<g>
			<path class="st5" d="M253.506,90.879c-4.254,0-8.442,0.283-12.549,0.824c46.659,6.143,82.676,46.064,82.676,94.401
				c0,48.336-36.016,88.257-82.676,94.4c4.107,0.541,8.294,0.824,12.549,0.824c52.591,0,95.224-42.634,95.224-95.224
				C348.73,133.512,306.097,90.879,253.506,90.879z"/>
		</g>
		<g>
			<circle class="st7" cx="253.506" cy="186.103" r="34.224"/>
		</g>
		<g>
			<path class="st3" d="M270.424,512c-0.002,0-0.004,0-0.006,0c-52.888-1-96.071-42.427-97.411-94.808l-26.373-25.659
				c-1.712-1.659-2.247-4.429-1.352-6.638c0.895-2.21,3.04-3.895,5.424-3.895h32.073c18.362,0,32.745,14.31,32.745,32.341
				c0,29.695,23.91,54.63,53.3,55.47c30.777,0.861,56.312-23.726,56.527-54.178c0.101-14.317-5.449-27.78-15.625-38.028
				C299.05,365.854,284.716,360,269.362,360h-4.604C245.604,360,228,343.349,228,324.464v-44.701c0-1.704,1.143-3.323,2.434-4.434
				c1.29-1.11,3.204-1.607,4.887-1.352c6.766,1.015,11.04,1.499,16.462,1.499c5.568,0,11.504-0.518,15.794-1.385
				c1.722-0.35,3.212,0.095,4.57,1.207c1.359,1.111,1.853,2.773,1.853,4.529v36.62c24,1.422,47.639,11.778,64.97,29.522
				c18.52,18.961,28.537,43.928,27.916,70.3c-0.59,25.063-10.511,48.694-28.079,66.541c-17.659,17.938-41.095,28.357-66.063,28.945
				C271.952,511.773,271.21,512,270.424,512z M165.154,393l17.743,17.226c1.138,1.103,1.78,2.706,1.78,4.29
				c0,47.085,38.464,84.484,85.742,85.484c0.002,0,0.004,0,0.006,0c0.694,0,1.385-0.077,2.083-0.094
				c45.371-1.068,81.757-37.932,82.839-83.88c0.546-23.194-8.13-45.176-24.43-61.864c-16.48-16.872-39.012-26.173-62.598-26.173
				c-3.231,0-6.319-2.629-6.319-5.86v-35.523c-4,0.371-7.105,0.572-10.836,0.572c-4.02,0-8.164-0.236-11.164-0.704v37.99
				C240,336.893,252.065,348,264.758,348h4.604c18.495,0,35.779,7.254,48.668,20.233c12.389,12.477,19.146,29.017,19.023,46.475
				c-0.124,17.682-7.11,34.279-19.673,46.686c-12.543,12.388-29.208,19.223-46.924,19.223c-0.653,0-1.308-0.003-1.967-0.021
				c-35.658-1.019-64.669-31.142-64.669-67.108c0-11.469-9.243-20.486-21.042-20.486H165.154z"/>
		</g>
		<g>
			<path class="st3" d="M253.507,287.178c-55.733,0-101.076-45.342-101.076-101.075c0-55.733,45.343-101.076,101.076-101.076
				c55.733,0,101.075,45.343,101.075,101.076C354.582,241.837,309.24,287.178,253.507,287.178z M253.507,96.73
				c-49.281,0-89.373,40.092-89.373,89.373c0,49.28,40.092,89.372,89.373,89.372c49.28,0,89.372-40.092,89.372-89.372
				C342.879,136.822,302.786,96.73,253.507,96.73z"/>
		</g>
		<g>
			<path class="st3" d="M253.507,226.178c-22.098,0-40.076-17.978-40.076-40.075c0-22.098,17.978-40.076,40.076-40.076
				c22.097,0,40.075,17.978,40.075,40.076C293.582,208.2,275.604,226.178,253.507,226.178z M253.507,157.73
				c-15.645,0-28.373,12.729-28.373,28.373c0,15.645,12.729,28.372,28.373,28.372c15.645,0,28.372-12.728,28.372-28.372
				C281.879,170.458,269.151,157.73,253.507,157.73z"/>
		</g>
	</g>
</g>
</svg>
